<mxfile host="app.diagrams.net" modified="2021-05-24T13:38:35.767Z" agent="5.0 (Windows NT 10.0; Win64; x64) AppleWebKit/537.36 (KHTML, like Gecko) Chrome/90.0.4430.212 Safari/537.36 Edg/90.0.818.66" etag="Lkcq3mZWf8aX0kTfQ9YO" version="14.7.0" type="github">
  <diagram id="l0QCuOxOGb-37JVC7twy" name="Page-1">
    <mxGraphModel dx="942" dy="624" grid="1" gridSize="10" guides="1" tooltips="1" connect="1" arrows="1" fold="1" page="1" pageScale="1" pageWidth="827" pageHeight="1169" math="0" shadow="0">
      <root>
        <mxCell id="0" />
        <mxCell id="1" parent="0" />
        <mxCell id="oTk7mVOoB8nzKGtpYmCO-31" value="" style="shape=table;startSize=0;container=1;collapsible=0;childLayout=tableLayout;" vertex="1" parent="1">
          <mxGeometry x="168.5" y="760" width="170" height="160" as="geometry" />
        </mxCell>
        <mxCell id="oTk7mVOoB8nzKGtpYmCO-32" value="" style="shape=partialRectangle;collapsible=0;dropTarget=0;pointerEvents=0;fillColor=none;top=0;left=0;bottom=0;right=0;points=[[0,0.5],[1,0.5]];portConstraint=eastwest;" vertex="1" parent="oTk7mVOoB8nzKGtpYmCO-31">
          <mxGeometry width="170" height="40" as="geometry" />
        </mxCell>
        <mxCell id="oTk7mVOoB8nzKGtpYmCO-33" value="1" style="shape=partialRectangle;connectable=0;fillColor=#dae8fc;top=0;left=0;bottom=0;right=0;overflow=hidden;strokeColor=#6c8ebf;" vertex="1" parent="oTk7mVOoB8nzKGtpYmCO-32">
          <mxGeometry width="42" height="40" as="geometry" />
        </mxCell>
        <mxCell id="oTk7mVOoB8nzKGtpYmCO-34" value="0" style="shape=partialRectangle;connectable=0;fillColor=#dae8fc;top=0;left=0;bottom=0;right=0;overflow=hidden;strokeColor=#6c8ebf;" vertex="1" parent="oTk7mVOoB8nzKGtpYmCO-32">
          <mxGeometry x="42" width="42" height="40" as="geometry" />
        </mxCell>
        <mxCell id="oTk7mVOoB8nzKGtpYmCO-35" value="1" style="shape=partialRectangle;connectable=0;fillColor=none;top=0;left=0;bottom=0;right=0;overflow=hidden;" vertex="1" parent="oTk7mVOoB8nzKGtpYmCO-32">
          <mxGeometry x="84" width="44" height="40" as="geometry" />
        </mxCell>
        <mxCell id="oTk7mVOoB8nzKGtpYmCO-36" value="0" style="shape=partialRectangle;connectable=0;fillColor=none;top=0;left=0;bottom=0;right=0;overflow=hidden;" vertex="1" parent="oTk7mVOoB8nzKGtpYmCO-32">
          <mxGeometry x="128" width="42" height="40" as="geometry" />
        </mxCell>
        <mxCell id="oTk7mVOoB8nzKGtpYmCO-37" value="" style="shape=partialRectangle;collapsible=0;dropTarget=0;pointerEvents=0;fillColor=none;top=0;left=0;bottom=0;right=0;points=[[0,0.5],[1,0.5]];portConstraint=eastwest;" vertex="1" parent="oTk7mVOoB8nzKGtpYmCO-31">
          <mxGeometry y="40" width="170" height="40" as="geometry" />
        </mxCell>
        <mxCell id="oTk7mVOoB8nzKGtpYmCO-38" value="1" style="shape=partialRectangle;connectable=0;fillColor=#dae8fc;top=0;left=0;bottom=0;right=0;overflow=hidden;strokeColor=#6c8ebf;" vertex="1" parent="oTk7mVOoB8nzKGtpYmCO-37">
          <mxGeometry width="42" height="40" as="geometry" />
        </mxCell>
        <mxCell id="oTk7mVOoB8nzKGtpYmCO-39" value="0" style="shape=partialRectangle;connectable=0;fillColor=#dae8fc;top=0;left=0;bottom=0;right=0;overflow=hidden;strokeColor=#6c8ebf;" vertex="1" parent="oTk7mVOoB8nzKGtpYmCO-37">
          <mxGeometry x="42" width="42" height="40" as="geometry" />
        </mxCell>
        <mxCell id="oTk7mVOoB8nzKGtpYmCO-40" value="1" style="shape=partialRectangle;connectable=0;fillColor=none;top=0;left=0;bottom=0;right=0;overflow=hidden;" vertex="1" parent="oTk7mVOoB8nzKGtpYmCO-37">
          <mxGeometry x="84" width="44" height="40" as="geometry" />
        </mxCell>
        <mxCell id="oTk7mVOoB8nzKGtpYmCO-41" value="0" style="shape=partialRectangle;connectable=0;fillColor=none;top=0;left=0;bottom=0;right=0;overflow=hidden;" vertex="1" parent="oTk7mVOoB8nzKGtpYmCO-37">
          <mxGeometry x="128" width="42" height="40" as="geometry" />
        </mxCell>
        <mxCell id="oTk7mVOoB8nzKGtpYmCO-42" value="" style="shape=partialRectangle;collapsible=0;dropTarget=0;pointerEvents=0;fillColor=none;top=0;left=0;bottom=0;right=0;points=[[0,0.5],[1,0.5]];portConstraint=eastwest;" vertex="1" parent="oTk7mVOoB8nzKGtpYmCO-31">
          <mxGeometry y="80" width="170" height="40" as="geometry" />
        </mxCell>
        <mxCell id="oTk7mVOoB8nzKGtpYmCO-43" value="1" style="shape=partialRectangle;connectable=0;fillColor=none;top=0;left=0;bottom=0;right=0;overflow=hidden;" vertex="1" parent="oTk7mVOoB8nzKGtpYmCO-42">
          <mxGeometry width="42" height="40" as="geometry" />
        </mxCell>
        <mxCell id="oTk7mVOoB8nzKGtpYmCO-44" value="0" style="shape=partialRectangle;connectable=0;fillColor=none;top=0;left=0;bottom=0;right=0;overflow=hidden;" vertex="1" parent="oTk7mVOoB8nzKGtpYmCO-42">
          <mxGeometry x="42" width="42" height="40" as="geometry" />
        </mxCell>
        <mxCell id="oTk7mVOoB8nzKGtpYmCO-45" value="0" style="shape=partialRectangle;connectable=0;fillColor=none;top=0;left=0;bottom=0;right=0;overflow=hidden;" vertex="1" parent="oTk7mVOoB8nzKGtpYmCO-42">
          <mxGeometry x="84" width="44" height="40" as="geometry" />
        </mxCell>
        <mxCell id="oTk7mVOoB8nzKGtpYmCO-46" value="1" style="shape=partialRectangle;connectable=0;fillColor=none;top=0;left=0;bottom=0;right=0;overflow=hidden;" vertex="1" parent="oTk7mVOoB8nzKGtpYmCO-42">
          <mxGeometry x="128" width="42" height="40" as="geometry" />
        </mxCell>
        <mxCell id="oTk7mVOoB8nzKGtpYmCO-47" value="" style="shape=partialRectangle;collapsible=0;dropTarget=0;pointerEvents=0;fillColor=none;top=0;left=0;bottom=0;right=0;points=[[0,0.5],[1,0.5]];portConstraint=eastwest;" vertex="1" parent="oTk7mVOoB8nzKGtpYmCO-31">
          <mxGeometry y="120" width="170" height="40" as="geometry" />
        </mxCell>
        <mxCell id="oTk7mVOoB8nzKGtpYmCO-48" value="0" style="shape=partialRectangle;connectable=0;fillColor=none;top=0;left=0;bottom=0;right=0;overflow=hidden;" vertex="1" parent="oTk7mVOoB8nzKGtpYmCO-47">
          <mxGeometry width="42" height="40" as="geometry" />
        </mxCell>
        <mxCell id="oTk7mVOoB8nzKGtpYmCO-49" value="1" style="shape=partialRectangle;connectable=0;fillColor=none;top=0;left=0;bottom=0;right=0;overflow=hidden;" vertex="1" parent="oTk7mVOoB8nzKGtpYmCO-47">
          <mxGeometry x="42" width="42" height="40" as="geometry" />
        </mxCell>
        <mxCell id="oTk7mVOoB8nzKGtpYmCO-50" value="1" style="shape=partialRectangle;connectable=0;fillColor=none;top=0;left=0;bottom=0;right=0;overflow=hidden;" vertex="1" parent="oTk7mVOoB8nzKGtpYmCO-47">
          <mxGeometry x="84" width="44" height="40" as="geometry" />
        </mxCell>
        <mxCell id="oTk7mVOoB8nzKGtpYmCO-51" value="1" style="shape=partialRectangle;connectable=0;fillColor=none;top=0;left=0;bottom=0;right=0;overflow=hidden;" vertex="1" parent="oTk7mVOoB8nzKGtpYmCO-47">
          <mxGeometry x="128" width="42" height="40" as="geometry" />
        </mxCell>
        <mxCell id="oTk7mVOoB8nzKGtpYmCO-52" value="" style="shape=table;startSize=0;container=1;collapsible=0;childLayout=tableLayout;" vertex="1" parent="1">
          <mxGeometry x="420" y="800" width="87" height="80" as="geometry" />
        </mxCell>
        <mxCell id="oTk7mVOoB8nzKGtpYmCO-53" value="" style="shape=partialRectangle;collapsible=0;dropTarget=0;pointerEvents=0;fillColor=none;top=0;left=0;bottom=0;right=0;points=[[0,0.5],[1,0.5]];portConstraint=eastwest;" vertex="1" parent="oTk7mVOoB8nzKGtpYmCO-52">
          <mxGeometry width="87" height="40" as="geometry" />
        </mxCell>
        <mxCell id="oTk7mVOoB8nzKGtpYmCO-54" value="0" style="shape=partialRectangle;connectable=0;fillColor=none;top=0;left=0;bottom=0;right=0;overflow=hidden;" vertex="1" parent="oTk7mVOoB8nzKGtpYmCO-53">
          <mxGeometry width="43" height="40" as="geometry" />
        </mxCell>
        <mxCell id="oTk7mVOoB8nzKGtpYmCO-55" value="1" style="shape=partialRectangle;connectable=0;fillColor=none;top=0;left=0;bottom=0;right=0;overflow=hidden;" vertex="1" parent="oTk7mVOoB8nzKGtpYmCO-53">
          <mxGeometry x="43" width="44" height="40" as="geometry" />
        </mxCell>
        <mxCell id="oTk7mVOoB8nzKGtpYmCO-56" value="" style="shape=partialRectangle;collapsible=0;dropTarget=0;pointerEvents=0;fillColor=none;top=0;left=0;bottom=0;right=0;points=[[0,0.5],[1,0.5]];portConstraint=eastwest;" vertex="1" parent="oTk7mVOoB8nzKGtpYmCO-52">
          <mxGeometry y="40" width="87" height="40" as="geometry" />
        </mxCell>
        <mxCell id="oTk7mVOoB8nzKGtpYmCO-57" value="1" style="shape=partialRectangle;connectable=0;fillColor=none;top=0;left=0;bottom=0;right=0;overflow=hidden;" vertex="1" parent="oTk7mVOoB8nzKGtpYmCO-56">
          <mxGeometry width="43" height="40" as="geometry" />
        </mxCell>
        <mxCell id="oTk7mVOoB8nzKGtpYmCO-58" value="1" style="shape=partialRectangle;connectable=0;fillColor=none;top=0;left=0;bottom=0;right=0;overflow=hidden;" vertex="1" parent="oTk7mVOoB8nzKGtpYmCO-56">
          <mxGeometry x="43" width="44" height="40" as="geometry" />
        </mxCell>
        <mxCell id="oTk7mVOoB8nzKGtpYmCO-59" value="*" style="text;strokeColor=none;fillColor=none;align=center;verticalAlign=middle;rounded=0;fontSize=30;" vertex="1" parent="1">
          <mxGeometry x="360" y="840" width="40" height="20" as="geometry" />
        </mxCell>
        <mxCell id="oTk7mVOoB8nzKGtpYmCO-60" value="" style="shape=table;startSize=0;container=1;collapsible=0;childLayout=tableLayout;" vertex="1" parent="1">
          <mxGeometry x="590" y="700" width="120" height="120" as="geometry" />
        </mxCell>
        <mxCell id="oTk7mVOoB8nzKGtpYmCO-61" value="" style="shape=partialRectangle;collapsible=0;dropTarget=0;pointerEvents=0;fillColor=none;top=0;left=0;bottom=0;right=0;points=[[0,0.5],[1,0.5]];portConstraint=eastwest;" vertex="1" parent="oTk7mVOoB8nzKGtpYmCO-60">
          <mxGeometry width="120" height="40" as="geometry" />
        </mxCell>
        <mxCell id="oTk7mVOoB8nzKGtpYmCO-62" value="1" style="shape=partialRectangle;connectable=0;fillColor=#dae8fc;top=0;left=0;bottom=0;right=0;overflow=hidden;strokeColor=#6c8ebf;" vertex="1" parent="oTk7mVOoB8nzKGtpYmCO-61">
          <mxGeometry width="40" height="40" as="geometry" />
        </mxCell>
        <mxCell id="oTk7mVOoB8nzKGtpYmCO-63" value="2" style="shape=partialRectangle;connectable=0;fillColor=none;top=0;left=0;bottom=0;right=0;overflow=hidden;" vertex="1" parent="oTk7mVOoB8nzKGtpYmCO-61">
          <mxGeometry x="40" width="40" height="40" as="geometry" />
        </mxCell>
        <mxCell id="oTk7mVOoB8nzKGtpYmCO-64" value="1" style="shape=partialRectangle;connectable=0;fillColor=none;top=0;left=0;bottom=0;right=0;overflow=hidden;" vertex="1" parent="oTk7mVOoB8nzKGtpYmCO-61">
          <mxGeometry x="80" width="40" height="40" as="geometry" />
        </mxCell>
        <mxCell id="oTk7mVOoB8nzKGtpYmCO-65" value="" style="shape=partialRectangle;collapsible=0;dropTarget=0;pointerEvents=0;fillColor=none;top=0;left=0;bottom=0;right=0;points=[[0,0.5],[1,0.5]];portConstraint=eastwest;" vertex="1" parent="oTk7mVOoB8nzKGtpYmCO-60">
          <mxGeometry y="40" width="120" height="40" as="geometry" />
        </mxCell>
        <mxCell id="oTk7mVOoB8nzKGtpYmCO-66" value="1" style="shape=partialRectangle;connectable=0;fillColor=none;top=0;left=0;bottom=0;right=0;overflow=hidden;" vertex="1" parent="oTk7mVOoB8nzKGtpYmCO-65">
          <mxGeometry width="40" height="40" as="geometry" />
        </mxCell>
        <mxCell id="oTk7mVOoB8nzKGtpYmCO-67" value="1" style="shape=partialRectangle;connectable=0;fillColor=none;top=0;left=0;bottom=0;right=0;overflow=hidden;" vertex="1" parent="oTk7mVOoB8nzKGtpYmCO-65">
          <mxGeometry x="40" width="40" height="40" as="geometry" />
        </mxCell>
        <mxCell id="oTk7mVOoB8nzKGtpYmCO-68" value="1" style="shape=partialRectangle;connectable=0;fillColor=none;top=0;left=0;bottom=0;right=0;overflow=hidden;" vertex="1" parent="oTk7mVOoB8nzKGtpYmCO-65">
          <mxGeometry x="80" width="40" height="40" as="geometry" />
        </mxCell>
        <mxCell id="oTk7mVOoB8nzKGtpYmCO-69" value="" style="shape=partialRectangle;collapsible=0;dropTarget=0;pointerEvents=0;fillColor=none;top=0;left=0;bottom=0;right=0;points=[[0,0.5],[1,0.5]];portConstraint=eastwest;" vertex="1" parent="oTk7mVOoB8nzKGtpYmCO-60">
          <mxGeometry y="80" width="120" height="40" as="geometry" />
        </mxCell>
        <mxCell id="oTk7mVOoB8nzKGtpYmCO-70" value="1" style="shape=partialRectangle;connectable=0;fillColor=none;top=0;left=0;bottom=0;right=0;overflow=hidden;" vertex="1" parent="oTk7mVOoB8nzKGtpYmCO-69">
          <mxGeometry width="40" height="40" as="geometry" />
        </mxCell>
        <mxCell id="oTk7mVOoB8nzKGtpYmCO-71" value="2" style="shape=partialRectangle;connectable=0;fillColor=none;top=0;left=0;bottom=0;right=0;overflow=hidden;" vertex="1" parent="oTk7mVOoB8nzKGtpYmCO-69">
          <mxGeometry x="40" width="40" height="40" as="geometry" />
        </mxCell>
        <mxCell id="oTk7mVOoB8nzKGtpYmCO-72" value="3" style="shape=partialRectangle;connectable=0;fillColor=none;top=0;left=0;bottom=0;right=0;overflow=hidden;" vertex="1" parent="oTk7mVOoB8nzKGtpYmCO-69">
          <mxGeometry x="80" width="40" height="40" as="geometry" />
        </mxCell>
        <mxCell id="oTk7mVOoB8nzKGtpYmCO-73" value="" style="endArrow=classic;exitX=1.023;exitY=-0.025;exitDx=0;exitDy=0;exitPerimeter=0;entryX=0;entryY=0.5;entryDx=0;entryDy=0;" edge="1" parent="1" source="oTk7mVOoB8nzKGtpYmCO-56" target="oTk7mVOoB8nzKGtpYmCO-65">
          <mxGeometry width="50" height="50" relative="1" as="geometry">
            <mxPoint x="520" y="840" as="sourcePoint" />
            <mxPoint x="570" y="790" as="targetPoint" />
          </mxGeometry>
        </mxCell>
        <mxCell id="oTk7mVOoB8nzKGtpYmCO-74" value="" style="shape=table;startSize=0;container=1;collapsible=0;childLayout=tableLayout;" vertex="1" parent="1">
          <mxGeometry x="610" y="860" width="80" height="80" as="geometry" />
        </mxCell>
        <mxCell id="oTk7mVOoB8nzKGtpYmCO-75" value="" style="shape=partialRectangle;collapsible=0;dropTarget=0;pointerEvents=0;fillColor=none;top=0;left=0;bottom=0;right=0;points=[[0,0.5],[1,0.5]];portConstraint=eastwest;" vertex="1" parent="oTk7mVOoB8nzKGtpYmCO-74">
          <mxGeometry width="80" height="40" as="geometry" />
        </mxCell>
        <mxCell id="oTk7mVOoB8nzKGtpYmCO-76" value="1" style="shape=partialRectangle;connectable=0;fillColor=#dae8fc;top=0;left=0;bottom=0;right=0;overflow=hidden;strokeColor=#6c8ebf;" vertex="1" parent="oTk7mVOoB8nzKGtpYmCO-75">
          <mxGeometry width="40" height="40" as="geometry" />
        </mxCell>
        <mxCell id="oTk7mVOoB8nzKGtpYmCO-77" value="1" style="shape=partialRectangle;connectable=0;fillColor=none;top=0;left=0;bottom=0;right=0;overflow=hidden;" vertex="1" parent="oTk7mVOoB8nzKGtpYmCO-75">
          <mxGeometry x="40" width="40" height="40" as="geometry" />
        </mxCell>
        <mxCell id="oTk7mVOoB8nzKGtpYmCO-78" value="" style="shape=partialRectangle;collapsible=0;dropTarget=0;pointerEvents=0;fillColor=none;top=0;left=0;bottom=0;right=0;points=[[0,0.5],[1,0.5]];portConstraint=eastwest;" vertex="1" parent="oTk7mVOoB8nzKGtpYmCO-74">
          <mxGeometry y="40" width="80" height="40" as="geometry" />
        </mxCell>
        <mxCell id="oTk7mVOoB8nzKGtpYmCO-79" value="1" style="shape=partialRectangle;connectable=0;fillColor=none;top=0;left=0;bottom=0;right=0;overflow=hidden;" vertex="1" parent="oTk7mVOoB8nzKGtpYmCO-78">
          <mxGeometry width="40" height="40" as="geometry" />
        </mxCell>
        <mxCell id="oTk7mVOoB8nzKGtpYmCO-80" value="3" style="shape=partialRectangle;connectable=0;fillColor=none;top=0;left=0;bottom=0;right=0;overflow=hidden;" vertex="1" parent="oTk7mVOoB8nzKGtpYmCO-78">
          <mxGeometry x="40" width="40" height="40" as="geometry" />
        </mxCell>
        <mxCell id="oTk7mVOoB8nzKGtpYmCO-81" value="" style="endArrow=classic;entryX=0.05;entryY=0.025;entryDx=0;entryDy=0;entryPerimeter=0;" edge="1" parent="1" target="oTk7mVOoB8nzKGtpYmCO-78">
          <mxGeometry width="50" height="50" relative="1" as="geometry">
            <mxPoint x="510" y="841" as="sourcePoint" />
            <mxPoint x="580" y="870" as="targetPoint" />
          </mxGeometry>
        </mxCell>
        <mxCell id="oTk7mVOoB8nzKGtpYmCO-82" value="步幅1" style="text;strokeColor=none;fillColor=none;align=center;verticalAlign=middle;rounded=0;" vertex="1" parent="1">
          <mxGeometry x="525" y="780" width="40" height="20" as="geometry" />
        </mxCell>
        <mxCell id="oTk7mVOoB8nzKGtpYmCO-83" value="步幅2" style="text;strokeColor=none;fillColor=none;align=center;verticalAlign=middle;rounded=0;" vertex="1" parent="1">
          <mxGeometry x="540" y="880" width="40" height="20" as="geometry" />
        </mxCell>
        <mxCell id="oTk7mVOoB8nzKGtpYmCO-84" value="输入" style="text;strokeColor=none;fillColor=none;align=center;verticalAlign=middle;rounded=0;" vertex="1" parent="1">
          <mxGeometry x="220" y="960" width="40" height="20" as="geometry" />
        </mxCell>
        <mxCell id="oTk7mVOoB8nzKGtpYmCO-85" value="卷积核" style="text;strokeColor=none;fillColor=none;align=center;verticalAlign=middle;rounded=0;" vertex="1" parent="1">
          <mxGeometry x="444" y="960" width="40" height="20" as="geometry" />
        </mxCell>
        <mxCell id="oTk7mVOoB8nzKGtpYmCO-86" value="特征图" style="text;strokeColor=none;fillColor=none;align=center;verticalAlign=middle;rounded=0;" vertex="1" parent="1">
          <mxGeometry x="630" y="960" width="40" height="20" as="geometry" />
        </mxCell>
      </root>
    </mxGraphModel>
  </diagram>
</mxfile>
